[INFO] Generating clip Hook Clip
$ "D:\Project AI\vela_ai_studio_v5\ffmpeg-2026-05-06-git-f2e5eff3ff-full_build\bin\ffmpeg.exe" -y -ss 0.000 -i "D:\Project AI\vela_ai_studio_v5\outputs\preview_smoke\renders\Preview_Smoke_V661_Preview_Scene_1\20260509_062826_ac44c44c\final_16x9.mp4" -t 5 -vf scale=1080:1920:force_original_aspect_ratio=increase,crop=1080:1920,setsar=1,format=yuv420p -c:v libx264 -c:a aac -shortest "D:\Project AI\vela_ai_studio_v5\outputs\clip_factory_real_smoke\clips\preview_hook_clip_9x16.mp4"
ffmpeg version 2026-05-06-git-f2e5eff3ff-full_build-www.gyan.dev Copyright (c) 2000-2026 the FFmpeg developers
  built with gcc 15.2.0 (Rev13, Built by MSYS2 project)
  configuration: --enable-gpl --enable-version3 --enable-static --disable-w32threads --disable-autodetect --enable-cairo --enable-fontconfig --enable-iconv --enable-gnutls --enable-lcms2 --enable-libxml2 --enable-gmp --enable-bzlib --enable-lzma --enable-libsnappy --enable-zlib --enable-librist --enable-libsrt --enable-libssh --enable-libzmq --enable-avisynth --enable-libbluray --enable-libcaca --enable-libdvdnav --enable-libdvdread --enable-sdl2 --enable-libaribb24 --enable-libaribcaption --enable-libdav1d --enable-libdavs2 --enable-libopenjpeg --enable-libquirc --enable-libuavs3d --enable-libxevd --enable-libzvbi --enable-liboapv --enable-libqrencode --enable-librav1e --enable-libsvtav1 --enable-libvvenc --enable-libwebp --enable-libx264 --enable-libx265 --enable-libxavs2 --enable-libxeve --enable-libxvid --enable-libaom --enable-libjxl --enable-libsvtjpegxs --enable-libvpx --enable-mediafoundation --enable-libass --enable-frei0r --enable-libfreetype --enable-libfribidi --enable-libharfbuzz --enable-liblensfun --enable-libvidstab --enable-libvmaf --enable-libzimg --enable-amf --enable-cuda-llvm --enable-cuvid --enable-dxva2 --enable-d3d11va --enable-d3d12va --enable-ffnvcodec --enable-libvpl --enable-nvdec --enable-nvenc --enable-vaapi --enable-libshaderc --enable-vulkan --enable-libplacebo --enable-opencl --enable-libcdio --enable-openal --enable-libgme --enable-libmodplug --enable-libopenmpt --enable-libopencore-amrwb --enable-libmp3lame --enable-libshine --enable-libtheora --enable-libtwolame --enable-libvo-amrwbenc --enable-libcodec2 --enable-libilbc --enable-libgsm --enable-liblc3 --enable-libopencore-amrnb --enable-libopus --enable-libspeex --enable-libvorbis --enable-ladspa --enable-libbs2b --enable-libflite --enable-libmysofa --enable-librubberband --enable-libsoxr --enable-chromaprint --enable-whisper
  libavutil      60. 30.100 / 60. 30.100
  libavcodec     62. 30.100 / 62. 30.100
  libavformat    62. 15.100 / 62. 15.100
  libavdevice    62.  4.100 / 62.  4.100
  libavfilter    11. 17.100 / 11. 17.100
  libswscale      9.  7.100 /  9.  7.100
  libswresample   6.  4.100 /  6.  4.100
Input #0, mov,mp4,m4a,3gp,3g2,mj2, from 'D:\Project AI\vela_ai_studio_v5\outputs\preview_smoke\renders\Preview_Smoke_V661_Preview_Scene_1\20260509_062826_ac44c44c\final_16x9.mp4':
  Metadata:
    major_brand     : isom
    minor_version   : 512
    compatible_brands: isomiso2avc1mp41
    encoder         : Lavf62.15.100
  Duration: 00:03:36.00, start: 0.000000, bitrate: 27 kb/s
  Stream #0:0[0x1](und): Video: h264 (High) (avc1 / 0x31637661), yuv420p(progressive), 960x540 [SAR 1:1 DAR 16:9], 24 kb/s, 24 fps, 24 tbr, 12288 tbn (default)
    Metadata:
      handler_name    : VideoHandler
      encoder         : Lavc62.30.100 libx264
Stream mapping:
  Stream #0:0 -> #0:0 (h264 (native) -> h264 (libx264))
Press [q] to stop, [?] for help
[libx264 @ 0000019afdb549c0] using SAR=1/1
[libx264 @ 0000019afdb549c0] using cpu capabilities: MMX2 SSE2Fast SSSE3 SSE4.2 AVX FMA3 BMI2 AVX2
[libx264 @ 0000019afdb549c0] profile High, level 4.0, 4:2:0, 8-bit
[libx264 @ 0000019afdb549c0] 264 - core 165 r3223 0480cb0 - H.264/MPEG-4 AVC codec - Copyleft 2003-2025 - http://www.videolan.org/x264.html - options: cabac=1 ref=3 deblock=1:0:0 analyse=0x3:0x113 me=hex subme=7 psy=1 psy_rd=1.00:0.00 mixed_ref=1 me_range=16 chroma_me=1 trellis=1 8x8dct=1 cqm=0 deadzone=21,11 fast_pskip=1 chroma_qp_offset=-2 threads=18 lookahead_threads=3 sliced_threads=0 nr=0 decimate=1 interlaced=0 bluray_compat=0 constrained_intra=0 bframes=3 b_pyramid=2 b_adapt=1 b_bias=0 direct=1 weightb=1 open_gop=0 weightp=2 keyint=250 keyint_min=24 scenecut=40 intra_refresh=0 rc_lookahead=40 rc=crf mbtree=1 crf=23.0 qcomp=0.60 qpmin=0 qpmax=69 qpstep=4 ip_ratio=1.40 aq=1:1.00
Output #0, mp4, to 'D:\Project AI\vela_ai_studio_v5\outputs\clip_factory_real_smoke\clips\preview_hook_clip_9x16.mp4':
  Metadata:
    major_brand     : isom
    minor_version   : 512
    compatible_brands: isomiso2avc1mp41
    encoder         : Lavf62.15.100
  Stream #0:0(und): Video: h264 (avc1 / 0x31637661), yuv420p(tv, progressive), 1080x1920 [SAR 1:1 DAR 9:16], q=2-31, 24 fps, 12288 tbn (default)
    Metadata:
      encoder         : Lavc62.30.100 libx264
      handler_name    : VideoHandler
    Side data:
      CPB properties: bitrate max/min/avg: 0/0/0 buffer size: 0 vbv_delay: N/A
frame=   92 fps=0.0 q=28.0 size=       0KiB time=00:00:03.75 bitrate=   0.1kbits/s speed=7.37x elapsed=0:00:00.50    
[out#0/mp4 @ 0000019afdad1540] video:75KiB audio:0KiB subtitle:0KiB other streams:0KiB global headers:0KiB muxing overhead: 3.010669%
frame=  120 fps=0.0 q=-1.0 Lsize=      77KiB time=00:00:04.91 bitrate= 128.8kbits/s speed=9.16x elapsed=0:00:00.53    
[libx264 @ 0000019afdb549c0] frame I:2     Avg QP:14.95  size:  2933
[libx264 @ 0000019afdb549c0] frame P:35    Avg QP:18.25  size:  1527
[libx264 @ 0000019afdb549c0] frame B:83    Avg QP:28.02  size:   203
[libx264 @ 0000019afdb549c0] consecutive B-frames:  3.3% 13.3%  0.0% 83.3%
[libx264 @ 0000019afdb549c0] mb I  I16..4:  0.4% 99.4%  0.2%
[libx264 @ 0000019afdb549c0] mb P  I16..4:  0.1%  0.6%  0.1%  P16..4:  3.2%  0.5%  0.2%  0.0%  0.0%    skip:95.4%
[libx264 @ 0000019afdb549c0] mb B  I16..4:  0.0%  0.0%  0.0%  B16..8:  0.8%  0.1%  0.0%  direct: 0.0%  skip:99.0%  L0:38.1% L1:59.6% BI: 2.3%
[libx264 @ 0000019afdb549c0] 8x8 transform intra:96.8% inter:86.2%
[libx264 @ 0000019afdb549c0] coded y,uvDC,uvAC intra: 7.6% 0.2% 0.0% inter: 0.3% 0.0% 0.0%
[libx264 @ 0000019afdb549c0] i16 v,h,dc,p: 69% 24%  3%  4%
[libx264 @ 0000019afdb549c0] i8 v,h,dc,ddl,ddr,vr,hd,vl,hu: 79% 12%  6%  1%  0%  0%  0%  1%  1%
[libx264 @ 0000019afdb549c0] i4 v,h,dc,ddl,ddr,vr,hd,vl,hu: 35% 27%  9%  5%  8%  5%  4%  5%  2%
[libx264 @ 0000019afdb549c0] i8c dc,h,v,p: 100%  0%  0%  0%
[libx264 @ 0000019afdb549c0] Weighted P-Frames: Y:8.6% UV:5.7%
[libx264 @ 0000019afdb549c0] ref P L0: 81.5%  9.5%  6.8%  2.1%  0.1%
[libx264 @ 0000019afdb549c0] ref B L0: 77.2% 20.0%  2.8%
[libx264 @ 0000019afdb549c0] ref B L1: 94.3%  5.7%
[libx264 @ 0000019afdb549c0] kb/s:121.87
